# Blender v2.75 (sub 0) OBJ File: 'flower.blend'
# www.blender.org
mtllib flower.mtl
o Cube_Cube.001
v -0.070828 -0.038882 0.070828
v -0.038761 0.233279 0.038761
v -0.070828 -0.038882 -0.070828
v -0.038761 0.233279 -0.038761
v 0.070828 -0.038882 0.070828
v 0.038761 0.233279 0.038761
v 0.070828 -0.038882 -0.070828
v 0.038761 0.233279 -0.038761
v -0.022602 0.587645 0.022602
v -0.022602 0.587645 -0.022602
v 0.022602 0.587645 0.022602
v 0.022602 0.587645 -0.022602
v -0.020303 0.889650 0.020303
v -0.020303 0.889650 -0.020303
v 0.020303 0.889650 0.020303
v 0.020303 0.889650 -0.020303
v 0.246299 0.321380 0.068302
v 0.241911 0.410691 0.060710
v 0.246299 0.321380 0.014583
v 0.241911 0.410691 0.020291
v -0.141888 0.987534 0.110437
v -0.141888 0.987534 -0.165966
v 0.134515 0.987534 0.110437
v 0.134515 0.987534 -0.165966
v -0.158366 1.106336 0.137491
v -0.158366 1.106336 -0.194109
v 0.173234 1.106336 0.137491
v 0.173234 1.106336 -0.194109
v 0.002997 1.299321 0.103391
v 0.042638 1.299321 0.103391
v -0.102757 1.300632 -0.017740
v -0.102757 1.300632 -0.066795
v -0.013503 1.314542 -0.146052
v 0.022910 1.314542 -0.146052
v 0.137641 1.313345 -0.019108
v 0.137641 1.313345 -0.061963
v -0.069238 1.229660 0.054560
v -0.069238 1.229660 -0.111898
v 0.097220 1.229660 -0.111898
v 0.097220 1.229660 0.054560
vn 0.000000 -0.830000 -0.557800
vn 0.000000 -0.222000 0.975000
vn 0.650700 -0.759300 0.000000
vn -0.627100 -0.778900 0.000000
vn 0.000000 -0.677400 0.735600
vn 0.851300 0.524700 0.000000
vn 0.000000 -0.230500 -0.973100
vn 0.950800 -0.309900 0.000000
vn -0.990500 -0.137400 0.000000
vn 0.000000 -0.174000 -0.984700
vn -0.961400 0.275200 0.000000
vn 0.000000 0.224900 -0.974400
vn 0.985500 0.169400 0.000000
vn 0.000000 1.000000 0.000000
vn -0.810500 0.585800 0.000000
vn 0.000000 0.558000 0.829800
vn 0.000000 0.554700 -0.832100
vn -0.993100 0.117000 0.000000
vn 0.000000 0.117000 -0.993100
vn -0.177500 0.089600 0.980000
vn 0.000000 0.117000 0.993100
vn 0.000000 -1.000000 0.000000
vn 0.000000 0.045600 0.999000
vn 0.000000 0.007600 1.000000
vn 0.000000 0.045600 -0.999000
vn 0.999000 0.045600 0.000000
vn -0.999000 0.045600 0.000000
vn 0.000000 0.007600 -1.000000
vn 1.000000 0.007600 0.000000
vn -1.000000 0.007600 0.000000
vn 0.998800 0.049100 0.000000
vn 0.899000 -0.437900 0.000000
vn -0.657800 0.753200 0.000000
vn 0.198300 0.121600 -0.972600
usemtl Flower
s off
f 16//1 14//1 22//1 24//1
f 21//2 23//2 27//2 25//2
f 15//3 16//3 24//3 23//3
f 14//4 13//4 21//4 22//4
f 13//5 15//5 23//5 21//5
f 27//6 28//6 39//6 40//6
f 24//7 22//7 26//7 28//7
f 23//8 24//8 28//8 27//8
f 22//9 21//9 25//9 26//9
f 27//10 25//10 29//10 30//10
f 26//11 25//11 31//11 32//11
f 28//12 26//12 33//12 34//12
f 27//13 28//13 36//13 35//13
f 40//14 39//14 38//14 37//14
f 26//15 25//15 37//15 38//15
f 25//16 27//16 40//16 37//16
f 28//17 26//17 38//17 39//17
usemtl Base
f 2//18 4//18 3//18 1//18
f 4//19 8//19 7//19 3//19
f 6//20 5//20 17//20 18//20
f 6//21 2//21 1//21 5//21
f 1//22 3//22 7//22 5//22
f 2//23 6//23 11//23 9//23
f 9//24 11//24 15//24 13//24
f 8//25 4//25 10//25 12//25
f 6//26 8//26 12//26 11//26
f 4//27 2//27 9//27 10//27
f 12//28 10//28 14//28 16//28
f 11//29 12//29 16//29 15//29
f 10//30 9//30 13//30 14//30
f 20//31 18//31 17//31 19//31
f 5//32 7//32 19//32 17//32
f 8//33 6//33 18//33 20//33
f 7//34 8//34 20//34 19//34
