# Blender v2.75 (sub 0) OBJ File: 'pinetree.blend'
# www.blender.org
mtllib pinetree.mtl
o Cylinder
v -0.000000 0.000000 -0.443553
v -0.000000 0.853958 -0.359737
v 0.313639 0.000000 -0.313639
v 0.254372 0.853958 -0.254372
v 0.443552 0.000000 0.000000
v 0.359737 0.853958 0.000000
v 0.313639 0.000000 0.313639
v 0.254372 0.853958 0.254372
v -0.000000 0.000000 0.443553
v -0.000000 0.853958 0.359737
v -0.313639 0.000000 0.313639
v -0.254372 0.853958 0.254372
v -0.443553 0.000000 -0.000000
v -0.359737 0.853958 -0.000000
v -0.313639 0.000000 -0.313639
v -0.254372 0.853958 -0.254372
v 0.000000 0.792176 -1.481318
v 1.047450 0.792176 -1.047450
v 1.481318 0.792176 0.000000
v 1.047450 0.792176 1.047450
v -0.000000 0.792176 1.481318
v -1.047450 0.792176 1.047450
v -1.481318 0.792176 -0.000000
v -1.047450 0.792176 -1.047450
v -0.000000 2.114926 -0.673200
v 0.476024 2.114926 -0.476024
v 0.673200 2.114926 0.000000
v 0.476024 2.114926 0.476024
v -0.000000 2.114926 0.673200
v -0.476024 2.114926 0.476024
v -0.673200 2.114926 -0.000000
v -0.476024 2.114926 -0.476024
v 0.000000 2.114926 -1.203737
v 0.851171 2.114926 -0.851171
v 1.203737 2.114926 0.000000
v 0.851171 2.114926 0.851171
v -0.000000 2.114926 1.203737
v -0.851171 2.114926 0.851171
v -1.203737 2.114926 -0.000000
v -0.851171 2.114926 -0.851171
v -0.000000 3.345519 -0.594909
v 0.420664 3.345519 -0.420664
v 0.594909 3.345519 0.000000
v 0.420664 3.345519 0.420664
v -0.000000 3.345519 0.594909
v -0.420665 3.345519 0.420664
v -0.594909 3.345519 -0.000000
v -0.420665 3.345519 -0.420664
v 0.000000 3.345519 -0.843374
v 0.596356 3.345519 -0.596355
v 0.843374 3.345519 0.000000
v 0.596356 3.345519 0.596355
v -0.000000 3.345519 0.843374
v -0.596356 3.345519 0.596355
v -0.843374 3.345519 -0.000000
v -0.596356 3.345519 -0.596355
v 0.000000 4.896243 -0.065274
v 0.046155 4.896243 -0.046155
v 0.065274 4.896243 0.000000
v 0.046155 4.896243 0.046155
v 0.000000 4.896243 0.065274
v -0.046155 4.896243 0.046155
v -0.065274 4.896243 -0.000000
v -0.046155 4.896243 -0.046155
vn -0.055000 -0.998200 -0.022800
vn -0.804600 0.491500 -0.333300
vn 0.055000 -0.998200 -0.022800
vn -0.022800 -0.998200 -0.055000
vn 0.055000 -0.998200 0.022800
vn -0.055000 -0.998200 0.022800
vn 0.022800 -0.998200 -0.055000
vn 0.022800 -0.998200 0.055000
vn -0.022800 -0.998200 0.055000
vn 0.000000 -1.000000 0.000000
vn -0.333300 0.491500 0.804600
vn 0.804600 0.491500 0.333300
vn 0.333300 0.491500 -0.804600
vn -0.333300 0.491500 -0.804600
vn -0.804600 0.491500 0.333300
vn 0.333300 0.491500 0.804600
vn 0.804600 0.491500 -0.333300
vn -0.348000 0.415700 -0.840300
vn -0.840300 0.415700 0.348000
vn 0.348000 0.415700 0.840300
vn 0.840300 0.415700 -0.348000
vn -0.840300 0.415700 -0.348000
vn -0.348000 0.415700 0.840300
vn 0.840300 0.415700 0.348000
vn 0.348000 0.415700 -0.840300
vn -0.838200 0.420600 -0.347200
vn 0.000000 1.000000 -0.000000
vn -0.347200 0.420600 0.838200
vn 0.838200 0.420600 0.347200
vn 0.347200 0.420600 -0.838200
vn -0.347200 0.420600 -0.838200
vn -0.838200 0.420600 0.347200
vn 0.347200 0.420600 0.838200
vn 0.838200 0.420600 -0.347200
vn 0.381100 0.090300 -0.920100
vn 0.920100 0.090300 -0.381100
vn 0.920100 0.090300 0.381100
vn 0.381100 0.090300 0.920100
vn -0.381100 0.090300 0.920100
vn -0.920100 0.090300 0.381100
vn -0.381100 0.090300 -0.920100
vn -0.920100 0.090300 -0.381100
usemtl Tree
s off
f 8//1 6//1 19//1 20//1
f 24//2 23//2 31//2 32//2
f 14//3 12//3 22//3 23//3
f 10//4 8//4 20//4 21//4
f 16//5 14//5 23//5 24//5
f 6//6 4//6 18//6 19//6
f 12//7 10//7 21//7 22//7
f 2//8 16//8 24//8 17//8
f 4//9 2//9 17//9 18//9
f 29//10 28//10 36//10 37//10
f 22//11 21//11 29//11 30//11
f 20//12 19//12 27//12 28//12
f 18//13 17//13 25//13 26//13
f 17//14 24//14 32//14 25//14
f 23//15 22//15 30//15 31//15
f 21//16 20//16 28//16 29//16
f 19//17 18//17 26//17 27//17
f 33//18 40//18 48//18 41//18
f 27//10 26//10 34//10 35//10
f 32//10 31//10 39//10 40//10
f 30//10 29//10 37//10 38//10
f 28//10 27//10 35//10 36//10
f 26//10 25//10 33//10 34//10
f 25//10 32//10 40//10 33//10
f 31//10 30//10 38//10 39//10
f 46//10 45//10 53//10 54//10
f 39//19 38//19 46//19 47//19
f 37//20 36//20 44//20 45//20
f 35//21 34//21 42//21 43//21
f 40//22 39//22 47//22 48//22
f 38//23 37//23 45//23 46//23
f 36//24 35//24 43//24 44//24
f 34//25 33//25 41//25 42//25
f 56//26 55//26 63//26 64//26
f 44//10 43//10 51//10 52//10
f 42//10 41//10 49//10 50//10
f 41//10 48//10 56//10 49//10
f 47//10 46//10 54//10 55//10
f 45//10 44//10 52//10 53//10
f 43//10 42//10 50//10 51//10
f 48//10 47//10 55//10 56//10
f 58//27 57//27 64//27 63//27 62//27 61//27 60//27 59//27
f 54//28 53//28 61//28 62//28
f 52//29 51//29 59//29 60//29
f 50//30 49//30 57//30 58//30
f 49//31 56//31 64//31 57//31
f 55//32 54//32 62//32 63//32
f 53//33 52//33 60//33 61//33
f 51//34 50//34 58//34 59//34
usemtl Bark
f 1//35 2//35 4//35 3//35
f 3//36 4//36 6//36 5//36
f 5//37 6//37 8//37 7//37
f 7//38 8//38 10//38 9//38
f 9//39 10//39 12//39 11//39
f 11//40 12//40 14//40 13//40
f 15//41 16//41 2//41 1//41
f 13//42 14//42 16//42 15//42
f 1//10 3//10 5//10 7//10 9//10 11//10 13//10 15//10
